<?xml version="1.0" encoding="UTF-8" standalone="no"?>
<svg
   viewBox="0 0 233.32104 24.053363"
   version="1.1"
   id="svg32"
   sodipodi:docname="navbar-logo.svg"
   inkscape:version="1.1.2 (b8e25be833, 2022-02-05)"
   width="233.32104"
   height="24.053364"
   xmlns:inkscape="http://www.inkscape.org/namespaces/inkscape"
   xmlns:sodipodi="http://sodipodi.sourceforge.net/DTD/sodipodi-0.dtd"
   xmlns="http://www.w3.org/2000/svg"
   xmlns:svg="http://www.w3.org/2000/svg">
  <defs
     id="defs36" />
  <sodipodi:namedview
     id="namedview34"
     pagecolor="#ffffff"
     bordercolor="#666666"
     borderopacity="1.0"
     inkscape:pageshadow="2"
     inkscape:pageopacity="0.0"
     inkscape:pagecheckerboard="0"
     showgrid="false"
     inkscape:zoom="4.8193824"
     inkscape:cx="111.73631"
     inkscape:cy="11.204755"
     inkscape:window-width="1920"
     inkscape:window-height="1009"
     inkscape:window-x="-8"
     inkscape:window-y="-8"
     inkscape:window-maximized="1"
     inkscape:current-layer="svg32"
     fit-margin-top="0"
     fit-margin-left="0"
     fit-margin-right="0"
     fit-margin-bottom="0" />
  <style
     id="style2">.cls-1{fill:#fed136;}</style>
  <g
     aria-label="James W. Spears"
     id="text2009"
     style="font-size:26.6667px;line-height:1.25;font-family:Montserrat;-inkscape-font-specification:Montserrat;letter-spacing:0px;word-spacing:0px;fill:#f2f2f2">
    <path
       d="m 5.4133401,19.093358 q -1.8933357,0 -3.3066708,-0.720001 Q 0.72000087,17.653356 -4.0054321e-8,16.373354 L 1.8400023,14.640019 q 0.533334,0.986668 1.4400018,1.573335 0.9333345,0.586667 2.1866694,0.586667 1.520002,0 2.4800032,-0.853334 0.9600012,-0.853334 1.333335,-2.800004 L 11.386681,2.5333366 H 4.6400058 L 5.1200064,0.2133337 H 14.453352 L 11.893348,13.040017 q -0.426667,2.240002 -1.280001,3.573337 -0.8533347,1.306669 -2.160003,1.893336 -1.2800016,0.586668 -3.0400039,0.586668 z"
       style="font-style:italic;font-weight:500;-inkscape-font-specification:'Montserrat Medium Italic'"
       id="path11480" />
    <path
       d="m 22.026707,19.040024 q -1.786669,0 -3.200004,-0.720001 -1.413335,-0.746667 -2.240003,-2.106669 -0.800001,-1.360002 -0.800001,-3.280004 0,-1.813336 0.586668,-3.3333378 0.613334,-1.5200019 1.680002,-2.6400033 1.093334,-1.1200014 2.560003,-1.7333355 1.466668,-0.6133341 3.173337,-0.6133341 1.840003,0 3.120004,0.6400008 1.280002,0.6400008 1.973336,1.8933357 0.693334,1.2266682 0.693334,3.0133372 0,2.613337 -0.906668,4.640006 -0.906667,2.000002 -2.613336,3.120004 -1.680002,1.120001 -4.026672,1.120001 z m 0.560001,-2.240003 q 1.600002,0 2.853337,-0.773334 1.253335,-0.773334 1.946669,-2.106669 0.720001,-1.360002 0.720001,-3.093338 0,-1.8666686 -1.093335,-2.9066699 -1.093335,-1.066668 -3.120004,-1.066668 -1.573335,0 -2.82667,0.7733343 -1.253335,0.7466676 -1.973336,2.1066693 -0.720001,1.3333353 -0.720001,3.0933373 0,1.840002 1.093335,2.90667 1.093335,1.066668 3.120004,1.066668 z m 4.080005,2.080003 0.746668,-3.653338 0.853334,-3.280004 0.346667,-3.3600044 0.746668,-3.8400048 h 2.560003 L 29.120049,18.880024 Z"
       style="font-style:italic;font-weight:500;-inkscape-font-specification:'Montserrat Medium Italic'"
       id="path11482" />
    <path
       d="m 54.106727,4.6133393 q 1.893336,0 3.120004,0.7466676 1.226668,0.7466676 1.706669,2.1866694 0.506667,1.4133351 0.08,3.4133377 l -1.573335,7.92001 h -2.560003 l 1.573335,-7.92001 q 0.4,-1.9200025 -0.346667,-2.9866705 -0.720001,-1.066668 -2.640004,-1.066668 -1.946669,0 -3.22667,1.0933347 -1.280002,1.0933347 -1.733336,3.3333378 l -1.520002,7.546676 h -2.560003 l 1.600002,-7.92001 q 0.373334,-1.9200025 -0.373334,-2.9866705 -0.720001,-1.066668 -2.640003,-1.066668 -1.946669,0 -3.226671,1.1200014 -1.280001,1.0933347 -1.733335,3.3866711 l -1.493336,7.466676 H 34.000035 L 36.800039,4.7466728 h 2.453336 l -0.800001,4.0533384 -0.48,-1.0933347 q 0.986667,-1.600002 2.480003,-2.3466696 1.520002,-0.7466676 3.360004,-0.7466676 1.440002,0 2.50667,0.4800006 1.066668,0.4800006 1.680002,1.4400018 0.640001,0.9333345 0.746668,2.2666695 l -1.386669,-0.266667 q 1.093335,-1.9733358 2.800004,-2.933337 1.733335,-0.9866679 3.946671,-0.9866679 z"
       style="font-style:italic;font-weight:500;-inkscape-font-specification:'Montserrat Medium Italic'"
       id="path11484" />
    <path
       d="m 68.93339,19.040024 q -2.080002,0 -3.600004,-0.746667 -1.520002,-0.773335 -2.34667,-2.133336 -0.826668,-1.386669 -0.826668,-3.253338 0,-2.400003 1.040002,-4.266672 1.040001,-1.866669 2.82667,-2.933337 1.813336,-1.0933347 4.106672,-1.0933347 1.920002,0 3.333337,0.7466676 1.413335,0.7200009 2.18667,2.0800026 0.800001,1.3600017 0.800001,3.2800045 0,0.48 -0.05333,0.986668 -0.05333,0.48 -0.133333,0.906667 H 64.026717 l 0.320001,-1.866669 h 10.693347 l -1.040002,0.640001 Q 74.240064,9.8933459 73.78673,8.8800113 73.333396,7.84001 72.346728,7.306676 71.386727,6.7466753 70.026725,6.7466753 q -1.600002,0 -2.82667,0.7733343 -1.200002,0.7466676 -1.866669,2.1066693 -0.666668,1.3333351 -0.666668,3.1466711 0,1.920002 1.093335,2.98667 1.120001,1.040001 3.386671,1.040001 1.333335,0 2.480003,-0.426667 1.146668,-0.453334 1.893336,-1.200001 l 1.093334,1.840002 q -1.013334,0.986668 -2.533336,1.520002 -1.520002,0.506667 -3.146671,0.506667 z"
       style="font-style:italic;font-weight:500;-inkscape-font-specification:'Montserrat Medium Italic'"
       id="path11486" />
    <path
       d="m 82.933408,19.040024 q -1.786669,0 -3.386671,-0.453334 -1.573335,-0.48 -2.42667,-1.173335 l 1.146668,-2.026669 q 0.826668,0.640001 2.133337,1.040002 1.333335,0.4 2.773336,0.4 1.840003,0 2.773337,-0.560001 0.933335,-0.56 0.933335,-1.520002 0,-0.693334 -0.560001,-1.040001 -0.560001,-0.373334 -1.466669,-0.560001 -0.880001,-0.213333 -1.893335,-0.4 -1.013335,-0.213334 -1.893336,-0.586668 -0.880001,-0.373333 -1.466669,-1.066668 -0.56,-0.72 -0.56,-1.8933353 0,-1.4133351 0.800001,-2.4266697 0.800001,-1.0400013 2.240003,-1.600002 1.440001,-0.5600007 3.360004,-0.5600007 1.386668,0 2.720003,0.3466671 1.360002,0.3200004 2.213336,0.9333345 L 89.360083,7.9200101 Q 88.480082,7.306676 87.386747,7.0666757 q -1.093335,-0.266667 -2.186669,-0.266667 -1.786669,0 -2.693337,0.6133341 -0.906668,0.5866674 -0.906668,1.4933352 0,0.6933342 0.560001,1.093335 0.56,0.373334 1.440002,0.586667 0.906667,0.213334 1.893335,0.426667 1.013335,0.186667 1.893336,0.560001 0.906668,0.346667 1.466669,1.040001 0.56,0.666668 0.56,1.840003 0,1.466668 -0.826667,2.50667 -0.800001,1.013334 -2.26667,1.546668 -1.466669,0.533334 -3.386671,0.533334 z"
       style="font-style:italic;font-weight:500;-inkscape-font-specification:'Montserrat Medium Italic'"
       id="path11488" />
    <path
       d="M 103.6534,18.880024 101.14673,0.2133337 h 2.61334 l 2.29333,17.2000213 h -1.33333 l 9.33334,-17.2000213 h 2.48001 l 2.34667,17.2000213 h -1.30667 l 9.25334,-17.2000213 h 2.66667 l -9.97334,18.6666903 h -2.82667 l -2.24001,-15.9200202 0.77334,-0.026667 -8.74668,15.9466869 z"
       style="font-style:italic;font-weight:500;-inkscape-font-specification:'Montserrat Medium Italic'"
       id="path11490" />
    <path
       d="m 128.88836,19.040024 q -0.72,0 -1.22667,-0.48 -0.48,-0.506668 -0.48,-1.226669 0,-0.880001 0.56,-1.413335 0.56,-0.533334 1.33333,-0.533334 0.72,0 1.2,0.480001 0.48001,0.48 0.48001,1.253335 0,0.56 -0.26667,1.013334 -0.26667,0.426668 -0.69334,0.666668 -0.4,0.24 -0.90666,0.24 z"
       style="font-style:italic;font-weight:500;-inkscape-font-specification:'Montserrat Medium Italic'"
       id="path11492" />
    <path
       d="m 147.39501,19.093358 q -1.41334,0 -2.77334,-0.293334 -1.33333,-0.320001 -2.45333,-0.826668 -1.09334,-0.506667 -1.76001,-1.146668 l 1.17334,-2.133336 q 0.72,0.640001 1.68,1.120001 0.98667,0.480001 2.08,0.746668 1.12,0.266667 2.29334,0.266667 1.49333,0 2.64,-0.373334 1.14667,-0.373334 1.76001,-1.066668 0.64,-0.720001 0.64,-1.733335 0,-0.826668 -0.53334,-1.360002 -0.53333,-0.533334 -1.38667,-0.853334 -0.82666,-0.346668 -1.86667,-0.613335 -1.01333,-0.293333 -2.05333,-0.64 -1.01334,-0.3733342 -1.86667,-0.9066682 -0.82667,-0.533334 -1.36,-1.3600017 -0.50667,-0.8533344 -0.50667,-2.133336 0,-1.7866689 0.98667,-3.0666706 0.98667,-1.3066683 2.72,-2.00000249 Q 148.56834,9.9182131e-8 150.86168,9.9182131e-8 q 1.73334,0 3.30667,0.400000500817869 1.57334,0.40000051 2.69334,1.1733348 l -1.06667,2.1866695 q -1.04,-0.7466677 -2.34667,-1.1200015 -1.30667,-0.3733338 -2.72,-0.3733338 -1.52001,0 -2.64001,0.4000005 -1.12,0.4000005 -1.73333,1.1466682 -0.61334,0.7200009 -0.64,1.7066688 0,0.8533344 0.50666,1.3866684 0.50667,0.533334 1.36001,0.8800011 0.85333,0.3466671 1.86667,0.6666675 1.04,0.2933337 2.05333,0.6400008 1.01334,0.3200004 1.86667,0.8533344 0.88,0.5066677 1.38667,1.3066687 0.53333,0.800001 0.53333,2.026669 0,1.786669 -1.01333,3.120004 -0.98667,1.306668 -2.77334,2.000002 -1.76,0.693335 -4.10667,0.693335 z"
       style="font-style:italic;font-weight:500;-inkscape-font-specification:'Montserrat Medium Italic'"
       id="path11494" />
    <path
       d="m 165.98171,19.040024 q -1.81334,0 -3.12001,-0.640001 -1.28,-0.666667 -1.97333,-1.893335 -0.69334,-1.253335 -0.69334,-3.013338 0,-2.66667 0.90667,-4.6400054 0.90667,-2.0000025 2.58667,-3.1200039 1.70667,-1.1200014 4.05334,-1.1200014 1.81333,0 3.2,0.7200009 1.41334,0.7200009 2.21334,2.1066693 0.82667,1.3600017 0.82667,3.2533375 0,1.813336 -0.61334,3.333337 -0.58666,1.520002 -1.68,2.640004 -1.06667,1.120001 -2.53334,1.760002 -1.46666,0.613334 -3.17333,0.613334 z m -9.17335,5.01334 3.84001,-19.3066912 h 2.45333 l -0.74666,3.6533379 -0.82667,3.2800043 -0.37334,3.360004 -1.78667,9.013345 z m 9.06668,-7.253343 q 1.6,0 2.82667,-0.773334 1.25333,-0.773334 1.97334,-2.106669 0.72,-1.360002 0.72,-3.093338 0,-1.8666686 -1.09334,-2.9066699 -1.09333,-1.066668 -3.12,-1.066668 -1.57334,0 -2.85334,0.7733343 -1.25333,0.7466676 -1.97333,2.1066693 -0.69334,1.3333353 -0.69334,3.0933373 0,1.840002 1.09334,2.90667 1.09333,1.066668 3.12,1.066668 z"
       style="font-style:italic;font-weight:500;-inkscape-font-specification:'Montserrat Medium Italic'"
       id="path11496" />
    <path
       d="m 182.7817,19.040024 q -2.08,0 -3.60001,-0.746667 -1.52,-0.773335 -2.34667,-2.133336 -0.82666,-1.386669 -0.82666,-3.253338 0,-2.400003 1.04,-4.266672 1.04,-1.866669 2.82667,-2.933337 1.81333,-1.0933347 4.10667,-1.0933347 1.92,0 3.33334,0.7466676 1.41333,0.7200009 2.18667,2.0800026 0.8,1.3600017 0.8,3.2800045 0,0.48 -0.0533,0.986668 -0.0533,0.48 -0.13333,0.906667 h -12.24001 l 0.32,-1.866669 h 10.69334 l -1.04,0.640001 q 0.24,-1.4933351 -0.21333,-2.5066697 -0.45334,-1.0400013 -1.44,-1.5733353 -0.96,-0.5600007 -2.32001,-0.5600007 -1.6,0 -2.82667,0.7733343 -1.2,0.7466676 -1.86667,2.1066693 -0.66666,1.3333351 -0.66666,3.1466711 0,1.920002 1.09333,2.98667 1.12,1.040001 3.38667,1.040001 1.33334,0 2.48001,-0.426667 1.14666,-0.453334 1.89333,-1.200001 l 1.09334,1.840002 q -1.01334,0.986668 -2.53334,1.520002 -1.52,0.506667 -3.14667,0.506667 z"
       style="font-style:italic;font-weight:500;-inkscape-font-specification:'Montserrat Medium Italic'"
       id="path11498" />
    <path
       d="m 198.54172,19.040024 q -1.78667,0 -3.20001,-0.720001 -1.41333,-0.746667 -2.24,-2.106669 -0.8,-1.360002 -0.8,-3.280004 0,-1.813336 0.58666,-3.3333378 0.61334,-1.5200019 1.68001,-2.6400033 1.09333,-1.1200014 2.56,-1.7333355 1.46667,-0.6133341 3.17334,-0.6133341 1.84,0 3.12,0.6400008 1.28,0.6400008 1.97334,1.8933357 0.69333,1.2266682 0.69333,3.0133372 0,2.613337 -0.90667,4.640006 -0.90666,2.000002 -2.61333,3.120004 -1.68001,1.120001 -4.02667,1.120001 z m 0.56,-2.240003 q 1.6,0 2.85333,-0.773334 1.25334,-0.773334 1.94667,-2.106669 0.72,-1.360002 0.72,-3.093338 0,-1.8666686 -1.09333,-2.9066699 -1.09334,-1.066668 -3.12001,-1.066668 -1.57333,0 -2.82667,0.7733343 -1.25333,0.7466676 -1.97333,2.1066693 -0.72,1.3333353 -0.72,3.0933373 0,1.840002 1.09333,2.90667 1.09334,1.066668 3.12001,1.066668 z m 4.08,2.080003 0.74667,-3.653338 0.85333,-3.280004 0.34667,-3.3600044 0.74667,-3.8400048 h 2.56 l -2.8,14.1333512 z"
       style="font-style:italic;font-weight:500;-inkscape-font-specification:'Montserrat Medium Italic'"
       id="path11500" />
    <path
       d="m 210.51505,18.880024 2.8,-14.1333512 h 2.45334 l -0.8,4.1066718 -0.26667,-1.0133346 q 0.98667,-1.7866689 2.50667,-2.5066698 1.52,-0.7200009 3.76001,-0.7200009 l -0.48,2.4800031 q -0.16,-0.026667 -0.32,-0.026667 -0.16,0 -0.34667,0 -2.10667,0 -3.49334,1.1466681 -1.36,1.1466681 -1.84,3.6000042 l -1.41334,7.066676 z"
       style="font-style:italic;font-weight:500;-inkscape-font-specification:'Montserrat Medium Italic'"
       id="path11502" />
    <path
       d="m 225.88103,19.040024 q -1.78667,0 -3.38667,-0.453334 -1.57333,-0.48 -2.42667,-1.173335 l 1.14667,-2.026669 q 0.82667,0.640001 2.13334,1.040002 1.33333,0.4 2.77333,0.4 1.84,0 2.77334,-0.560001 0.93333,-0.56 0.93333,-1.520002 0,-0.693334 -0.56,-1.040001 -0.56,-0.373334 -1.46667,-0.560001 -0.88,-0.213333 -1.89333,-0.4 -1.01334,-0.213334 -1.89334,-0.586668 -0.88,-0.373333 -1.46667,-1.066668 -0.56,-0.72 -0.56,-1.8933353 0,-1.4133351 0.80001,-2.4266697 0.8,-1.0400013 2.24,-1.600002 1.44,-0.5600007 3.36,-0.5600007 1.38667,0 2.72001,0.3466671 1.36,0.3200004 2.21333,0.9333345 l -1.01333,2.0266692 q -0.88,-0.6133341 -1.97334,-0.8533344 -1.09333,-0.266667 -2.18667,-0.266667 -1.78667,0 -2.69333,0.6133341 -0.90667,0.5866674 -0.90667,1.4933352 0,0.6933342 0.56,1.093335 0.56,0.373334 1.44,0.586667 0.90667,0.213334 1.89334,0.426667 1.01333,0.186667 1.89333,0.560001 0.90667,0.346667 1.46667,1.040001 0.56,0.666668 0.56,1.840003 0,1.466668 -0.82667,2.50667 -0.8,1.013334 -2.26667,1.546668 -1.46667,0.533334 -3.38667,0.533334 z"
       style="font-style:italic;font-weight:500;-inkscape-font-specification:'Montserrat Medium Italic'"
       id="path11504" />
  </g>
</svg>
